<svg width="50" height="50" viewBox="0 0 50 50" fill="none" xmlns="http://www.w3.org/2000/svg">
<g clip-path="url(#clip0_3_125)">
<path d="M47.5712 8.47767C47.5712 6.73778 45.2205 5.33316 40.5844 4.30295C36.595 3.41639 31.3584 2.9112 25.7669 2.86877V0.766844C25.7669 0.34335 25.4235 1.52588e-05 25.0001 1.52588e-05C24.5766 1.52588e-05 24.2332 0.34335 24.2332 0.766844V2.86867C18.6417 2.9111 13.4051 3.41629 9.41574 4.30285C4.77949 5.33316 2.4288 6.73778 2.4288 8.47767C2.4288 9.01199 2.65149 9.51462 3.09308 9.98464C2.65261 10.4551 2.4289 10.962 2.4288 11.4989C2.4288 13.2388 4.77949 14.6434 9.41564 15.6736C13.2879 16.5341 18.3354 17.0354 23.7419 17.1029V41.1803L15.6537 47.887C15.4971 48.0169 15.3985 48.2037 15.3796 48.4062C15.3607 48.6088 15.4232 48.8106 15.5531 48.967L16.1806 49.7229C16.3322 49.9056 16.5508 50.0001 16.7711 50C16.9435 50 17.1171 49.9421 17.2601 49.8234L23.7419 44.4489V48.8042C23.7419 49.2277 24.0853 49.571 24.5088 49.571H25.4912C25.9147 49.571 26.2581 49.2277 26.2581 48.8042V44.4489L32.7399 49.8234C32.883 49.9421 33.0565 50 33.2289 50C33.4492 50 33.6677 49.9056 33.8194 49.7229L34.4469 48.967C34.5768 48.8105 34.6392 48.6088 34.6204 48.4062C34.6015 48.2037 34.5029 48.0169 34.3463 47.887L26.2581 41.1802V17.1028C31.6644 17.0353 36.712 16.534 40.5844 15.6735C45.2205 14.6433 47.5712 13.2386 47.5712 11.4988C47.5712 10.9619 47.3475 10.4549 46.9069 9.98443C47.3485 9.51452 47.5712 9.01199 47.5712 8.47767ZM25.0001 7.70511C25.4235 7.70511 25.7669 7.36178 25.7669 6.93828V6.465C28.7366 6.53319 30.6636 6.98695 31.3875 7.33131C30.6031 7.7044 28.4065 8.20662 25.0001 8.20662C21.5936 8.20662 19.3971 7.7044 18.6126 7.33121C19.3365 6.98685 21.2635 6.53299 24.2332 6.46489V6.93818C24.2332 7.36188 24.5766 7.70511 25.0001 7.70511ZM40.2517 14.1764C36.1863 15.0799 30.7699 15.5774 25.0001 15.5773C19.2302 15.5773 13.8137 15.0798 9.74834 14.1763C5.1717 13.1593 3.96246 11.9802 3.96246 11.4989C3.96246 11.3367 4.09405 11.132 4.33084 10.9157C5.49581 11.5778 7.19214 12.1582 9.41564 12.6523C13.5869 13.5792 19.1215 14.0897 25.0005 14.0897H25.0009C30.8789 14.0897 36.4132 13.5792 40.5844 12.6523C42.8082 12.1581 44.5046 11.5776 45.6695 10.9155C45.9064 11.1319 46.0375 11.3368 46.0375 11.4988C46.0375 11.9802 44.8283 13.1594 40.2517 14.1764ZM40.2518 11.1552C36.1864 12.0587 30.7703 12.5562 25.0009 12.5562H25.0001C19.2301 12.5562 13.8137 12.0587 9.74834 11.1552C5.1717 10.1382 3.96246 8.95903 3.96246 8.47767C3.96246 7.9962 5.1717 6.81712 9.74834 5.8C13.633 4.93676 18.7516 4.44445 24.2331 4.40243V4.93093C22.4928 4.96978 20.8731 5.14053 19.6083 5.4216C18.4215 5.68539 16.8434 6.17033 16.8434 7.33131C16.8434 8.49239 18.4214 8.97733 19.6083 9.24112C21.057 9.56309 22.9718 9.74038 24.9999 9.74038C27.0281 9.74038 28.9428 9.56309 30.3916 9.24112C31.5784 8.97733 33.1564 8.49239 33.1564 7.33141C33.1564 6.17043 31.5785 5.68539 30.3916 5.4217C29.1269 5.14063 27.5071 4.96988 25.7668 4.93103V4.40253C31.2483 4.44466 36.3669 4.93696 40.2516 5.8001C44.8282 6.81712 46.0374 7.9963 46.0374 8.47777C46.0375 8.95903 44.8283 10.1381 40.2518 11.1552Z" fill="#BBBBBB"/>
</g>
<defs>
<clipPath id="clip0_3_125">
<rect width="50" height="50" fill="white"/>
</clipPath>
</defs>
</svg>
