<svg width="50" height="50" viewBox="0 0 50 50" fill="none" xmlns="http://www.w3.org/2000/svg">
<g clip-path="url(#clip0_3_280)">
<path d="M21.3394 42.7205C31.1106 42.7205 39.06 34.771 39.06 24.9999C39.06 15.2289 31.1106 7.27942 21.3394 7.27942C11.5683 7.27942 3.6189 15.2289 3.6189 24.9999C3.6189 34.771 11.5683 42.7205 21.3394 42.7205ZM21.3394 8.87559C30.2304 8.87559 37.4639 16.1089 37.4639 25.0001C37.4639 33.8912 30.2306 41.1245 21.3394 41.1245C12.4483 41.1245 5.21496 33.8912 5.21496 25.0001C5.21496 16.1089 12.4484 8.87559 21.3394 8.87559Z" fill="#B4B4B4"/>
<path d="M27.229 38.1166C29.5216 38.1166 31.3867 36.2514 31.3867 33.9589C31.3867 31.6663 29.5216 29.8011 27.229 29.8011C24.9364 29.8011 23.0713 31.6663 23.0713 33.9589C23.0713 36.2514 24.9364 38.1166 27.229 38.1166ZM27.229 31.3973C28.6415 31.3973 29.7907 32.5464 29.7907 33.959C29.7907 35.3715 28.6415 36.5206 27.229 36.5206C25.8166 36.5206 24.6673 35.3715 24.6673 33.959C24.6673 32.5464 25.8165 31.3973 27.229 31.3973Z" fill="#B4B4B4"/>
<path d="M50 24.9999C50 24.467 49.693 24.0054 49.2474 23.7796C48.9678 19.0126 47.062 14.6761 44.0775 11.3172C44.1247 11.1775 44.1507 11.0302 44.1507 10.8784C44.1507 10.5127 44.0084 10.1691 43.75 9.91089C43.4915 9.65233 43.1479 9.50986 42.7822 9.50986C42.6304 9.50986 42.4829 9.53571 42.3433 9.58296C38.9846 6.59875 34.6482 4.69295 29.8813 4.41321C29.6555 3.96748 29.1936 3.66061 28.6605 3.66061C28.1424 3.66061 27.6906 3.95025 27.4583 4.37607H22.5401C22.3077 3.95067 21.8574 3.66061 21.3393 3.66061C20.8064 3.66061 20.3449 3.96748 20.119 4.4131C15.352 4.69273 11.0155 6.59854 7.65661 9.58296C7.5169 9.53571 7.36942 9.50986 7.21758 9.50986C6.85209 9.50986 6.5084 9.65223 6.25005 9.91068C5.99149 10.1691 5.84912 10.5128 5.84912 10.8784C5.84912 11.0302 5.87508 11.1776 5.92222 11.3172C2.93812 14.6761 1.03232 19.0126 0.752687 23.7796C0.306854 24.0054 -1.52588e-05 24.467 -1.52588e-05 24.9999C-1.52588e-05 25.5327 0.306748 25.9942 0.752261 26.2201C1.02146 30.8648 2.8248 35.2187 5.9185 38.6935C5.8737 38.8299 5.84933 38.9737 5.84933 39.1215C5.84933 39.4871 5.9917 39.8306 6.25026 40.0891C6.50872 40.3476 6.8523 40.4899 7.2178 40.4899C7.36559 40.4899 7.50934 40.4656 7.64575 40.4208C11.1207 43.5146 15.4744 45.3178 20.1192 45.587C20.3451 46.0326 20.8065 46.3393 21.3394 46.3393C21.8577 46.3393 22.3096 46.0496 22.5418 45.6237H27.4582C27.6905 46.0496 28.1423 46.3393 28.6605 46.3393C29.1935 46.3393 29.6552 46.0323 29.881 45.5866C34.648 45.3069 38.9845 43.4011 42.3433 40.4168C42.483 40.4641 42.6304 40.4899 42.7823 40.4899C43.1479 40.4899 43.4915 40.3476 43.7498 40.0891C44.0084 39.8306 44.1507 39.487 44.1507 39.1214C44.1507 38.9696 44.1248 38.8221 44.0775 38.6824C47.0619 35.3237 48.9678 30.9872 49.2474 26.2202C49.693 25.9945 50 25.5329 50 24.9999ZM29.3243 44.0149C31.4224 43.1304 33.3438 41.908 35.022 40.4169C35.1618 40.4642 35.3092 40.49 35.461 40.49C35.8265 40.49 36.1702 40.3477 36.4286 40.0892C36.4427 40.0752 36.4551 40.0598 36.4685 40.0453H40.2953C37.2397 42.4135 33.4466 43.8727 29.3243 44.0149ZM42.1081 38.4492H36.9619C39.8284 35.1241 41.653 30.8773 41.9262 26.2203C42.1227 26.1207 42.2918 25.9755 42.4198 25.798H47.6705C47.4659 30.7276 45.3784 35.1793 42.1081 38.4492ZM40.2954 9.95473H36.4684C36.4551 9.94015 36.4426 9.92494 36.4286 9.91089C36.1701 9.65244 35.8265 9.51007 35.4609 9.51007C35.3092 9.51007 35.1618 9.53593 35.0221 9.58317C33.3439 8.09213 31.4224 6.86944 29.3242 5.98512C33.4466 6.12706 37.2398 7.58628 40.2954 9.95473ZM42.1082 11.5508C45.3784 14.8207 47.4659 19.2723 47.6704 24.2019H42.4197C42.2916 24.0245 42.1226 23.8792 41.926 23.7796C41.6529 19.1226 39.8284 14.8758 36.9619 11.5507L42.1082 11.5508ZM21.3394 5.97214C31.8314 5.97214 40.3672 14.508 40.3672 24.9999C40.3672 35.4919 31.8314 44.0276 21.3394 44.0276C16.2569 44.0278 11.4786 42.0484 7.88474 38.4546C4.29083 34.8607 2.31161 30.0824 2.31161 24.9999C2.31161 14.508 10.8474 5.97214 21.3394 5.97214Z" fill="#B4B4B4"/>
</g>
<defs>
<clipPath id="clip0_3_280">
<rect width="50" height="50" fill="white"/>
</clipPath>
</defs>
</svg>
