<svg width="50" height="50" viewBox="0 0 50 50" fill="none" xmlns="http://www.w3.org/2000/svg">
<g clip-path="url(#clip0_3_246)">
<path d="M49.7162 1.25101C49.3455 0.880424 48.753 0.871497 48.3933 1.23126L35.8496 14.1765C32.5797 13.5168 28.8742 13.1656 25.0223 13.1656C22.3369 13.1656 19.7233 13.3367 17.2783 13.6635L1.4789 2.11838C1.06335 1.82457 0.481082 1.9337 0.178457 2.36164C-0.124168 2.78991 -0.0325547 3.37507 0.382885 3.66888L15.4219 13.9475C13.2512 14.3228 11.2456 14.8274 9.48329 15.4513C5.04758 17.0216 2.60482 19.2203 2.60482 21.6424V40.5562C2.60482 42.9784 5.04769 45.1771 9.48329 46.7473C13.6467 48.2212 19.1653 49.033 25.0223 49.033C30.8793 49.033 36.3979 48.2213 40.5613 46.7473C44.9969 45.1771 47.4398 42.9784 47.4398 40.5562V21.6424C47.4398 19.2203 44.9969 17.0216 40.5613 15.4513C39.5802 15.104 38.5232 14.7939 37.4049 14.5221L49.7359 2.57388C50.0957 2.21412 50.0868 1.62181 49.7162 1.25101ZM25.0223 14.8395C28.3541 14.8395 31.5642 15.1082 34.4549 15.6159L33.5141 16.5867C30.8526 16.0995 27.9083 15.8495 25.0223 15.8495C23.5289 15.8495 22.0199 15.9167 20.5424 16.0487L19.2666 15.1165C21.1151 14.9341 23.0472 14.8395 25.0223 14.8395ZM26.7238 24.2433C27.1342 24.6538 27.8447 24.6087 28.3106 24.143C28.6353 23.8181 28.7548 23.3748 28.6589 22.9968L33.5244 18.2825C34.8292 18.5348 36.0437 18.8458 37.1327 19.2144C39.9873 20.1803 41.6915 21.4497 41.6915 22.6102C41.6915 23.7707 39.9873 25.0401 37.1327 26.006C33.9103 27.0963 29.6095 27.6968 25.0223 27.6968C20.435 27.6968 16.1341 27.0963 12.9118 26.006C10.0572 25.0401 8.35302 23.7707 8.35302 22.6102C8.35302 21.4498 10.0572 20.1803 12.9118 19.2144C15.1441 18.459 17.8945 17.9392 20.8987 17.691L24.6127 20.2294C24.5821 20.618 24.7749 21.0347 25.1499 21.2999C25.688 21.6801 26.3958 21.6042 26.7308 21.1303C27.0659 20.6563 26.9013 19.9638 26.3632 19.5835C25.9882 19.3184 25.531 19.2755 25.1747 19.4341L22.637 17.5797C23.4207 17.5432 24.2166 17.5237 25.0223 17.5237C27.5114 17.5237 29.9143 17.7019 32.1082 18.0379L27.9702 22.3082C27.5922 22.2123 27.1488 22.3319 26.8241 22.6566C26.3583 23.1224 26.3132 23.8327 26.7238 24.2433ZM24.0754 30.1114V47.3515C21.1327 47.3063 18.3015 47.0506 15.7208 46.6054V29.3881C18.3197 29.8202 21.1475 30.0675 24.0754 30.1114ZM25.7492 30.1143C28.6728 30.0806 31.5002 29.8443 34.1037 29.4239V46.6433C31.518 47.0763 28.6869 47.3198 25.7492 47.3544V30.1143ZM10.0419 17.0291C12.1773 16.2731 14.6946 15.6992 17.443 15.329L18.7756 16.2398C12.2017 17.0785 6.67932 19.2535 6.67932 22.6101C6.67932 23.7412 7.30778 24.7378 8.39096 25.5948C5.78651 24.4166 4.27863 22.9899 4.27863 21.6425C4.27863 20.0313 6.43305 18.3067 10.0419 17.0291ZM4.27863 40.5562V24.9621C4.65791 25.3157 5.0988 25.6578 5.60094 25.9858V42.8162C4.74317 42.0758 4.27863 41.3039 4.27863 40.5562ZM7.27308 43.9508C7.27352 43.9397 7.27475 43.9286 7.27475 43.9174V26.9214C7.94416 27.2443 8.68064 27.5493 9.48329 27.8334C10.8671 28.3232 12.4012 28.7395 14.047 29.0775V46.2825C12.6063 45.9734 11.2615 45.6012 10.0418 45.1695C8.98885 44.7968 8.061 44.3858 7.27308 43.9508ZM40.0027 45.1695C38.7211 45.6232 37.3015 46.011 35.7775 46.3289V29.1225C37.507 28.7767 39.1159 28.3451 40.5613 27.8334C41.2769 27.58 41.9398 27.3101 42.5498 27.0258V44.0706C41.8111 44.4612 40.9585 44.8312 40.0027 45.1695ZM44.2236 42.9989V26.1256C44.8172 25.7551 45.3323 25.3663 45.766 24.9621V40.5564C45.766 41.3655 45.2221 42.2034 44.2236 42.9989ZM40.0027 17.0291C43.6114 18.3067 45.766 20.0313 45.766 21.6424C45.766 22.9898 44.2581 24.4165 41.6536 25.5947C42.7368 24.7378 43.3653 23.7412 43.3653 22.61C43.3653 19.9092 39.7896 17.9736 34.968 16.8834L35.972 15.9106C37.4225 16.2208 38.7758 16.5948 40.0027 17.0291Z" fill="#B4B4B4"/>
</g>
<defs>
<clipPath id="clip0_3_246">
<rect width="50" height="50" fill="white"/>
</clipPath>
</defs>
</svg>
