<svg width="50" height="50" viewBox="0 0 50 50" fill="none" xmlns="http://www.w3.org/2000/svg">
<g clip-path="url(#clip0_3_168)">
<path d="M49.9955 19.8124C49.9881 19.681 49.9477 19.5498 49.8701 19.432L48.369 17.1549C48.3677 17.153 48.3662 17.1512 48.3648 17.1493C47.1474 15.278 42.3707 14.415 37.8888 14.415C35.1463 14.415 32.558 14.7301 30.6007 15.3023C28.8693 15.8085 27.7773 16.4655 27.3382 17.2622L25.908 19.4321C25.8304 19.55 25.7901 19.6814 25.7827 19.8128C25.7816 19.8253 25.7746 19.9167 25.7799 19.9733L26.1793 24.1973L23.8206 24.1972L24.2198 19.9733C24.225 19.919 24.2182 19.8258 24.2172 19.814C24.2102 19.6821 24.1698 19.5504 24.0918 19.4321L22.5912 17.155C22.5898 17.153 22.5882 17.1511 22.5868 17.1491C21.3691 15.2779 16.5928 14.415 12.1111 14.415C9.36843 14.415 6.78002 14.7301 4.82283 15.3023C3.0889 15.8092 1.99606 16.4673 1.55828 17.2654L0.129898 19.432C0.0517128 19.5506 0.0113362 19.6828 0.0044527 19.8151C0.00332257 19.8265 -0.00335549 19.9189 0.00178148 19.9733C0.380068 23.9758 0.758355 27.9782 1.13705 31.9806C1.13746 31.9848 1.13787 31.989 1.13839 31.9931C1.5065 35.3083 9.62898 35.5806 12.1124 35.5851C14.5929 35.5806 22.7148 35.3083 23.0835 31.9933C23.084 31.9891 23.0845 31.9848 23.0849 31.9806L23.414 28.4981H26.5858L26.915 31.9806C26.9154 31.9848 26.9158 31.9891 26.9163 31.9933C27.2851 35.3084 35.4069 35.5807 37.8902 35.5851C40.3709 35.5806 48.4931 35.3083 48.8618 31.9933C48.8623 31.9891 48.8627 31.9848 48.8631 31.9806C49.2417 27.9783 49.6199 23.9759 49.9981 19.9734C50.0031 19.9189 49.9965 19.8249 49.9955 19.8124ZM38.6593 34.0349V23.9329C40.7666 23.8925 42.7688 23.6868 44.493 23.3368L43.8404 33.5234C42.5056 33.7974 40.7819 33.9932 38.6593 34.0349ZM31.9375 33.5234L31.2849 23.3368C33.009 23.6868 35.0112 23.8926 37.1182 23.9329V34.0349C34.9958 33.9931 33.2721 33.7972 31.9375 33.5234ZM45.6899 21.4603C43.6167 22.0664 40.8463 22.4002 37.8888 22.4002C34.9317 22.4002 32.1614 22.0664 30.0884 21.4603C28.3493 20.9519 27.5602 20.372 27.3695 20.0152L27.734 19.4621C29.3243 21.0618 33.7333 21.8038 37.8888 21.8038C40.6314 21.8038 43.2199 21.4887 45.1772 20.9164C46.5227 20.523 47.4814 20.0385 48.0483 19.4683L48.4087 20.0151C48.2182 20.372 47.4288 20.952 45.6899 21.4603ZM31.0331 16.7815C32.8539 16.2492 35.2885 15.9561 37.8887 15.9561C40.4891 15.9561 42.924 16.2492 44.7447 16.7815C46.1987 17.2066 46.8556 17.6787 47.0525 17.9526C47.062 17.9695 47.1197 18.0344 47.1197 18.1093C47.1197 18.316 46.5393 18.9125 44.7447 19.4372C42.924 19.9695 40.4891 20.2626 37.8887 20.2626C35.2885 20.2626 32.8537 19.9695 31.0331 19.4372C29.2388 18.9126 28.6583 18.316 28.6583 18.1093C28.6583 18.0344 28.7154 17.9702 28.7246 17.9535C28.9209 17.6798 29.5777 17.207 31.0331 16.7815ZM12.647 34.0395V23.9374C14.7432 23.9095 16.743 23.718 18.4772 23.3841L17.8244 33.5713C16.4743 33.83 14.7514 34.0099 12.647 34.0395ZM5.92142 33.4728L5.26892 23.2876C6.98231 23.6542 8.98748 23.8747 11.1059 23.9279V34.0299C8.96344 33.9754 7.23926 33.7624 5.92142 33.4728ZM19.9116 21.4603C17.8385 22.0664 15.0682 22.4002 12.1111 22.4002C9.15371 22.4002 6.38334 22.0664 4.31016 21.4603C2.57109 20.9519 1.78185 20.3719 1.59137 20.0151L1.95589 19.462C3.54619 21.0618 7.95536 21.8038 12.1111 21.8038C14.8537 21.8038 17.4421 21.4887 19.3993 20.9164C20.7447 20.5231 21.7031 20.0386 22.27 19.4685L22.6302 20.0151C22.4399 20.372 21.6505 20.9519 19.9116 21.4603ZM5.25516 16.7815C7.07591 16.2492 9.51073 15.9561 12.111 15.9561C14.7112 15.9561 17.1461 16.2492 18.9668 16.7815C20.4203 17.2064 21.0772 17.6785 21.2744 17.9524C21.2838 17.9694 21.3417 18.0356 21.3417 18.1093C21.3417 18.316 20.7612 18.9126 18.9668 19.4372C17.146 19.9695 14.7112 20.2626 12.111 20.2626C9.51063 20.2626 7.0758 19.9695 5.25516 19.4372C3.46061 18.9125 2.88352 18.316 2.88013 18.1093C2.87879 18.0313 2.93787 17.9696 2.94712 17.9528C3.14407 17.6789 3.80088 17.2066 5.25516 16.7815ZM2.67064 31.8277C2.36397 28.5866 2.0576 25.3455 1.75133 22.1043C2.28116 22.3909 2.93068 22.6517 3.69896 22.8857L4.34869 33.029C3.27075 32.6372 2.71575 32.1959 2.67064 31.8277ZM19.3931 33.1896L20.0445 23.0229C20.1452 22.9954 20.2462 22.9681 20.3441 22.9395C21.1912 22.6918 21.8999 22.4129 22.4705 22.1043L21.5514 31.8277C21.4997 32.2472 20.7879 32.7619 19.3931 33.1896ZM23.5597 26.9569L23.6749 25.7383L26.325 25.7384L26.4401 26.9569H23.5597ZM28.4485 31.8274L27.5294 22.1043C28.1001 22.4129 28.8087 22.6919 29.6559 22.9395C29.6756 22.9452 29.6966 22.9506 29.7164 22.9563L30.367 33.1126C29.1306 32.701 28.4969 32.2222 28.4485 31.8274ZM47.3296 31.8274C47.2811 32.2223 46.6472 32.701 45.411 33.1126L46.0616 22.9563C46.0816 22.9506 46.1024 22.9452 46.1223 22.9394C46.9694 22.6916 47.678 22.4129 48.2486 22.1043C47.9424 25.3454 47.6361 28.5865 47.3296 31.8274Z" fill="#BBBBBB"/>
</g>
<defs>
<clipPath id="clip0_3_168">
<rect width="50" height="50" fill="white"/>
</clipPath>
</defs>
</svg>
